<svg width="48" height="48" viewBox="0 0 48 48" fill="none" xmlns="http://www.w3.org/2000/svg">
<path d="M24 47.0171C37.2548 47.0171 48 36.712 48 24C48 11.288 37.2548 0.98291 24 0.98291C10.7452 0.98291 0 11.288 0 24C0 36.712 10.7452 47.0171 24 47.0171Z" fill="white"/>
<path d="M34.865 22.3907C31.191 19.9177 26.4791 20.929 24.0075 24.6422C21.939 27.7426 18.8251 28.1339 17.6154 28.1339C13.6801 28.1339 10.9919 25.3952 10.1929 22.5678C10.1929 22.5678 10.178 22.5162 10.1705 22.4866C10.163 22.4571 10.1556 22.4276 10.1481 22.3907C9.83446 21.2096 9.75979 20.6485 9.75979 19.3936C9.75979 12.6243 16.7865 5.08727 26.9048 5.08727C37.023 5.08727 43.191 12.8827 44.7218 17.2159C44.692 17.1421 44.6696 17.0609 44.6397 16.9871C41.6976 8.51252 33.5656 2.42236 24 2.42236C11.9477 2.42236 2.18045 12.078 2.18045 23.9852C2.18045 34.63 9.94647 43.7468 20.7218 43.7468C29.3167 43.7468 35.089 38.9854 37.7399 32.4228C39.196 28.8352 38.1655 24.6127 34.865 22.3981V22.3907Z" fill="#003863"/>
<path d="M44.8488 17.6441C43.5719 13.4142 37.6055 5.09473 26.8973 5.09473C16.7791 5.09473 9.75233 12.6318 9.75233 19.401C9.75233 20.656 9.83447 21.2244 10.1406 22.3981C10.0062 21.8814 9.93902 21.3647 9.93902 20.8627C9.93902 13.8129 17.0778 8.92599 24.4182 8.92599C34.3497 8.92599 42.407 16.8912 42.407 26.7092C42.407 34.4087 37.9266 41.0672 31.4151 44.271C39.8083 41.2739 45.8046 33.3235 45.8046 23.9927C45.8046 21.7854 45.5059 19.8366 44.8413 17.6441H44.8488Z" fill="#E4032E"/>
</svg>
