<svg width="32" height="32" viewBox="0 0 32 32" fill="none" xmlns="http://www.w3.org/2000/svg">
<path d="M9.38477 25.1153C8.69027 25.1153 8.09993 24.8723 7.61377 24.3863C7.12777 23.9001 6.88477 23.3098 6.88477 22.6153C6.88477 22.0551 7.04977 21.5593 7.37977 21.1278C7.70993 20.6964 8.12827 20.3981 8.63477 20.2328V11.7673C8.12827 11.6019 7.70993 11.3036 7.37977 10.8723C7.04977 10.4408 6.88477 9.94493 6.88477 9.38477C6.88477 8.69027 7.12777 8.09993 7.61377 7.61376C8.09993 7.12776 8.69027 6.88477 9.38477 6.88477C9.94493 6.88477 10.4408 7.04977 10.8723 7.37977C11.3036 7.70993 11.6019 8.12827 11.7673 8.63477H20.2328C20.3879 8.12827 20.6819 7.70993 21.1148 7.37977C21.5476 7.04977 22.0478 6.88477 22.6153 6.88477C23.3098 6.88477 23.9001 7.12776 24.3863 7.61376C24.8723 8.09993 25.1153 8.69027 25.1153 9.38477C25.1153 9.95227 24.9503 10.4524 24.6203 10.8853C24.2901 11.3181 23.8718 11.6121 23.3653 11.7673V20.2328C23.8718 20.3981 24.2901 20.6964 24.6203 21.1278C24.9503 21.5593 25.1153 22.0551 25.1153 22.6153C25.1153 23.3098 24.8723 23.9001 24.3863 24.3863C23.9001 24.8723 23.3098 25.1153 22.6153 25.1153C22.0551 25.1153 21.5593 24.9503 21.1278 24.6203C20.6964 24.2901 20.3981 23.8718 20.2328 23.3653H11.7673C11.6019 23.8718 11.3036 24.2901 10.8723 24.6203C10.4408 24.9503 9.94493 25.1153 9.38477 25.1153ZM9.38477 10.3848C9.6681 10.3848 9.9056 10.2889 10.0973 10.0973C10.2889 9.9056 10.3848 9.6681 10.3848 9.38477C10.3848 9.10143 10.2889 8.86393 10.0973 8.67227C9.9056 8.4806 9.6681 8.38477 9.38477 8.38477C9.10143 8.38477 8.86393 8.4806 8.67227 8.67227C8.4806 8.86393 8.38477 9.10143 8.38477 9.38477C8.38477 9.6681 8.4806 9.9056 8.67227 10.0973C8.86393 10.2889 9.10143 10.3848 9.38477 10.3848ZM22.6153 10.3848C22.8986 10.3848 23.1361 10.2889 23.3278 10.0973C23.5194 9.9056 23.6153 9.6681 23.6153 9.38477C23.6153 9.10143 23.5194 8.86393 23.3278 8.67227C23.1361 8.4806 22.8986 8.38477 22.6153 8.38477C22.3319 8.38477 22.0944 8.4806 21.9028 8.67227C21.7111 8.86393 21.6153 9.10143 21.6153 9.38477C21.6153 9.6681 21.7111 9.9056 21.9028 10.0973C22.0944 10.2889 22.3319 10.3848 22.6153 10.3848ZM11.7673 21.8653H20.2328C20.3571 21.4704 20.5616 21.1308 20.8463 20.8463C21.1308 20.5616 21.4704 20.3571 21.8653 20.2328V11.7673C21.4704 11.6494 21.1291 11.4466 20.8413 11.1588C20.5534 10.8709 20.3506 10.5296 20.2328 10.1348H11.7673C11.6429 10.5296 11.4384 10.8693 11.1538 11.1538C10.8693 11.4384 10.5296 11.6429 10.1348 11.7673V20.2328C10.5296 20.3571 10.8693 20.5616 11.1538 20.8463C11.4384 21.1308 11.6429 21.4704 11.7673 21.8653ZM22.6153 23.6153C22.8986 23.6153 23.1361 23.5194 23.3278 23.3278C23.5194 23.1361 23.6153 22.8986 23.6153 22.6153C23.6153 22.3319 23.5194 22.0944 23.3278 21.9028C23.1361 21.7111 22.8986 21.6153 22.6153 21.6153C22.3319 21.6153 22.0944 21.7111 21.9028 21.9028C21.7111 22.0944 21.6153 22.3319 21.6153 22.6153C21.6153 22.8986 21.7111 23.1361 21.9028 23.3278C22.0944 23.5194 22.3319 23.6153 22.6153 23.6153ZM9.38477 23.6153C9.6681 23.6153 9.9056 23.5194 10.0973 23.3278C10.2889 23.1361 10.3848 22.8986 10.3848 22.6153C10.3848 22.3319 10.2889 22.0944 10.0973 21.9028C9.9056 21.7111 9.6681 21.6153 9.38477 21.6153C9.10143 21.6153 8.86393 21.7111 8.67227 21.9028C8.4806 22.0944 8.38477 22.3319 8.38477 22.6153C8.38477 22.8986 8.4806 23.1361 8.67227 23.3278C8.86393 23.5194 9.10143 23.6153 9.38477 23.6153Z" fill="#1D1D1D"/>
</svg>
