<svg width="21" height="21" viewBox="0 0 21 21" fill="none" xmlns="http://www.w3.org/2000/svg">
<path d="M10.4959 14.2916C10.6483 14.2916 10.7773 14.2397 10.883 14.1358C10.9888 14.032 11.0417 13.9034 11.0417 13.75V10.0416C11.0417 9.88815 10.9902 9.75947 10.8872 9.65558C10.7841 9.55183 10.6565 9.49996 10.5042 9.49996C10.3519 9.49996 10.2229 9.55183 10.1172 9.65558C10.0113 9.75947 9.95842 9.88815 9.95842 10.0416V13.75C9.95842 13.9034 10.0099 14.032 10.113 14.1358C10.2161 14.2397 10.3437 14.2916 10.4959 14.2916ZM10.4957 8.24038C10.6615 8.24038 10.802 8.18427 10.9172 8.07204C11.0323 7.95982 11.0899 7.82079 11.0899 7.65496C11.0899 7.48913 11.0338 7.34864 10.9215 7.2335C10.8093 7.1185 10.6703 7.061 10.5045 7.061C10.3386 7.061 10.1981 7.11704 10.083 7.22913C9.96786 7.34135 9.91029 7.48038 9.91029 7.64621C9.91029 7.81204 9.9664 7.95253 10.0786 8.06767C10.1908 8.18281 10.3299 8.24038 10.4957 8.24038ZM10.5072 18.0833C9.46397 18.0833 8.48147 17.8859 7.55966 17.4912C6.63786 17.0965 5.83105 16.5534 5.13925 15.8618C4.44744 15.1703 3.90404 14.3641 3.50904 13.4433C3.11418 12.5226 2.91675 11.5388 2.91675 10.4918C2.91675 9.44489 3.11411 8.46399 3.50883 7.54913C3.90355 6.63426 4.44668 5.83093 5.13821 5.13913C5.82973 4.44732 6.63592 3.90392 7.55675 3.50892C8.47744 3.11406 9.46126 2.91663 10.5082 2.91663C11.5552 2.91663 12.5361 3.11399 13.4509 3.50871C14.3658 3.90343 15.1691 4.44656 15.8609 5.13808C16.5527 5.82961 17.0961 6.63413 17.4911 7.55163C17.886 8.46926 18.0834 9.44968 18.0834 10.4929C18.0834 11.5361 17.8861 12.5186 17.4913 13.4404C17.0966 14.3622 16.5535 15.169 15.862 15.8608C15.1704 16.5526 14.3659 17.096 13.4484 17.491C12.5308 17.8859 11.5504 18.0833 10.5072 18.0833Z" fill="#1D1D1D"/>
</svg>
