<svg width="32" height="32" viewBox="0 0 32 32" fill="none" xmlns="http://www.w3.org/2000/svg">
<path d="M16.0018 25.5C14.6878 25.5 13.4527 25.2507 12.2965 24.752C11.1403 24.2533 10.1347 23.5766 9.2795 22.7218C8.42433 21.8669 7.74725 20.8617 7.24825 19.706C6.74942 18.5503 6.5 17.3156 6.5 16.0018C6.5 14.6878 6.74942 13.4527 7.24825 12.2965C7.74692 11.1403 8.42375 10.1347 9.27875 9.2795C10.1337 8.42433 11.1392 7.74725 12.295 7.24825C13.4508 6.74942 14.6858 6.5 16 6.5H16.75V14.7078C16.9858 14.8526 17.1698 15.0332 17.302 15.2497C17.434 15.4662 17.5 15.7167 17.5 16.0012C17.5 16.4094 17.3523 16.7612 17.0568 17.0567C16.7613 17.3522 16.409 17.5 16 17.5C15.591 17.5 15.2388 17.3522 14.9433 17.0567C14.6478 16.7612 14.5 16.4098 14.5 16.0023C14.5 15.7183 14.566 15.4652 14.698 15.243C14.8302 15.0208 15.0142 14.8424 15.25 14.7078V12.0865C14.3192 12.2622 13.5448 12.7138 12.927 13.4413C12.309 14.1689 12 15.0218 12 16C12 17.1 12.3917 18.0417 13.175 18.825C13.9583 19.6083 14.9 20 16 20C17.1 20 18.0417 19.6083 18.825 18.825C19.6083 18.0417 20 17.1 20 16C20 15.4 19.8792 14.8458 19.6375 14.3375C19.3958 13.8292 19.0667 13.3833 18.65 13L19.7193 11.9307C20.2641 12.4359 20.6971 13.0373 21.0182 13.7348C21.3394 14.4324 21.5 15.1875 21.5 16C21.5 17.5278 20.9655 18.8264 19.8965 19.8957C18.8275 20.9652 17.5294 21.5 16.0023 21.5C14.4751 21.5 13.1763 20.9652 12.1058 19.8957C11.0353 18.8264 10.5 17.5278 10.5 16C10.5 14.5962 10.9542 13.3818 11.8625 12.3568C12.7708 11.3318 13.9 10.7314 15.25 10.5557V8.03075C13.209 8.21658 11.4904 9.06758 10.0943 10.5837C8.69808 12.0997 8 13.9052 8 16C8 18.2333 8.775 20.125 10.325 21.675C11.875 23.225 13.7667 24 16 24C18.2333 24 20.125 23.225 21.675 21.675C23.225 20.125 24 18.2333 24 16C24 14.85 23.775 13.775 23.325 12.775C22.875 11.775 22.2583 10.9083 21.475 10.175L22.5443 9.10575C23.4558 9.97758 24.1762 11.0035 24.7057 12.1835C25.2352 13.3637 25.5 14.6349 25.5 15.9973C25.5 17.3119 25.2507 18.5473 24.752 19.7035C24.2533 20.8597 23.5766 21.8653 22.7218 22.7205C21.8669 23.5757 20.8617 24.2528 19.706 24.7518C18.5503 25.2506 17.3156 25.5 16.0018 25.5Z" fill="#1D1D1D"/>
</svg>
