<svg width="28" height="28" viewBox="0 0 28 28" fill="none" xmlns="http://www.w3.org/2000/svg">
<path d="M13.9969 5.16724C16.9873 5.16724 17.3419 5.17844 18.5235 5.23257C21.5587 5.3707 22.9765 6.81084 23.1146 9.82364C23.1687 11.0043 23.179 11.359 23.179 14.3494C23.179 17.3407 23.1678 17.6944 23.1146 18.8751C22.9755 21.8851 21.5615 23.328 18.5235 23.4662C17.3419 23.5203 16.9891 23.5315 13.9969 23.5315C11.0065 23.5315 10.6518 23.5203 9.47114 23.4662C6.42847 23.3271 5.01821 21.8804 4.88007 18.8742C4.82594 17.6935 4.81474 17.3398 4.81474 14.3484C4.81474 11.358 4.82687 11.0043 4.88007 9.8227C5.01914 6.81084 6.43314 5.36977 9.47114 5.23164C10.6527 5.17844 11.0065 5.16724 13.9969 5.16724ZM13.9969 3.14844C10.9551 3.14844 10.5743 3.1615 9.37967 3.21564C5.31221 3.4023 3.05167 5.6591 2.86501 9.7303C2.80994 10.9259 2.79688 11.3067 2.79688 14.3484C2.79688 17.3902 2.80994 17.7719 2.86407 18.9666C3.05074 23.034 5.30754 25.2946 9.37874 25.4812C10.5743 25.5354 10.9551 25.5484 13.9969 25.5484C17.0386 25.5484 17.4203 25.5354 18.615 25.4812C22.6787 25.2946 24.9449 23.0378 25.1287 18.9666C25.1838 17.7719 25.1969 17.3902 25.1969 14.3484C25.1969 11.3067 25.1838 10.9259 25.1297 9.73124C24.9467 5.6675 22.6871 3.40324 18.6159 3.21657C17.4203 3.1615 17.0386 3.14844 13.9969 3.14844ZM13.9969 8.59724C10.8207 8.59724 8.24567 11.1723 8.24567 14.3484C8.24567 17.5246 10.8207 20.1006 13.9969 20.1006C17.173 20.1006 19.7481 17.5255 19.7481 14.3484C19.7481 11.1723 17.173 8.59724 13.9969 8.59724ZM13.9969 18.0818C11.9351 18.0818 10.2635 16.4111 10.2635 14.3484C10.2635 12.2867 11.9351 10.6151 13.9969 10.6151C16.0586 10.6151 17.7302 12.2867 17.7302 14.3484C17.7302 16.4111 16.0586 18.0818 13.9969 18.0818ZM19.9758 7.02644C19.2329 7.02644 18.6309 7.62844 18.6309 8.37044C18.6309 9.11244 19.2329 9.71444 19.9758 9.71444C20.7178 9.71444 21.3189 9.11244 21.3189 8.37044C21.3189 7.62844 20.7178 7.02644 19.9758 7.02644Z" fill="#8D8D8D"/>
</svg>
