<svg width="24" height="24" viewBox="0 0 24 24" fill="none" xmlns="http://www.w3.org/2000/svg">
<path d="M3.75 10.5C3.75 9.83696 4.01339 9.20107 4.48223 8.73223C4.95107 8.26339 5.58696 8 6.25 8H17.75C18.413 8 19.0489 8.26339 19.5178 8.73223C19.9866 9.20107 20.25 9.83696 20.25 10.5V17.5C20.25 18.163 19.9866 18.7989 19.5178 19.2678C19.0489 19.7366 18.413 20 17.75 20H6.25C5.58696 20 4.95107 19.7366 4.48223 19.2678C4.01339 18.7989 3.75 18.163 3.75 17.5V10.5ZM8.603 5.5C8.603 5.10218 8.76104 4.72064 9.04234 4.43934C9.32364 4.15804 9.70517 4 10.103 4H13.897C14.2948 4 14.6764 4.15804 14.9577 4.43934C15.239 4.72064 15.397 5.10218 15.397 5.5V8H8.603V5.5Z" stroke="#8D8D8D" stroke-width="1.5" stroke-linecap="round" stroke-linejoin="round"/>
</svg>
