<svg width="24" height="24" viewBox="0 0 24 24" fill="none" xmlns="http://www.w3.org/2000/svg">
<g id="proicons:person-add-2">
<path id="Vector" d="M19.25 1.75V7.75M16.25 4.75H22.25M10.436 13.564C11.4722 13.564 12.466 13.1524 13.1987 12.4197C13.9314 11.687 14.343 10.6932 14.343 9.657C14.343 8.6208 13.9314 7.62704 13.1987 6.89433C12.466 6.16163 11.4722 5.75 10.436 5.75C9.3998 5.75 8.40604 6.16163 7.67333 6.89433C6.94063 7.62704 6.529 8.6208 6.529 9.657C6.529 10.6932 6.94063 11.687 7.67333 12.4197C8.40604 13.1524 9.3998 13.564 10.436 13.564ZM10.436 13.564C12.2091 13.5643 13.9094 14.2688 15.1631 15.5226C16.4167 16.7765 17.121 18.4769 17.121 20.25M10.436 13.564C8.66276 13.564 6.96215 14.2684 5.70828 15.5223C4.45442 16.7762 3.75 18.4768 3.75 20.25" stroke="#1D1D1F" stroke-width="1.5" stroke-linecap="round" stroke-linejoin="round"/>
</g>
</svg>
