<svg width="21" height="21" viewBox="0 0 21 21" fill="none" xmlns="http://www.w3.org/2000/svg">
<mask id="mask0_279_14029" style="mask-type:alpha" maskUnits="userSpaceOnUse" x="0" y="0" width="21" height="21">
<rect x="0.3125" y="0.617188" width="20" height="20" fill="#D9D9D9"/>
</mask>
<g mask="url(#mask0_279_14029)">
<path d="M10.3152 18.1172C9.27812 18.1172 8.30306 17.9204 7.39 17.5268C6.47708 17.1332 5.68292 16.599 5.0075 15.9243C4.33208 15.2495 3.79743 14.4561 3.40354 13.5439C3.00951 12.6318 2.8125 11.6571 2.8125 10.6199C2.8125 9.58281 3.00931 8.60774 3.40292 7.69469C3.79653 6.78177 4.33069 5.9876 5.00542 5.31219C5.68014 4.63677 6.47361 4.10212 7.38583 3.70823C8.29792 3.3142 9.27257 3.11719 10.3098 3.11719C11.3469 3.11719 12.3219 3.31399 13.235 3.7076C14.1479 4.10122 14.9421 4.63538 15.6175 5.3101C16.2929 5.98483 16.8276 6.7783 17.2215 7.69052C17.6155 8.6026 17.8125 9.57726 17.8125 10.6145C17.8125 11.6516 17.6157 12.6266 17.2221 13.5397C16.8285 14.4526 16.2943 15.2468 15.6196 15.9222C14.9449 16.5976 14.1514 17.1323 13.2392 17.5261C12.3271 17.9202 11.3524 18.1172 10.3152 18.1172ZM10.3125 17.2839C12.1736 17.2839 13.75 16.638 15.0417 15.3464C16.3333 14.0547 16.9792 12.4783 16.9792 10.6172C16.9792 8.75608 16.3333 7.17969 15.0417 5.88802C13.75 4.59635 12.1736 3.95052 10.3125 3.95052C8.45139 3.95052 6.875 4.59635 5.58333 5.88802C4.29167 7.17969 3.64583 8.75608 3.64583 10.6172C3.64583 12.4783 4.29167 14.0547 5.58333 15.3464C6.875 16.638 8.45139 17.2839 10.3125 17.2839Z" fill="#8D8D8D"/>
<path d="M9.8125 11.0674V7.01367C9.8125 6.73753 10.0364 6.51367 10.3125 6.51367C10.5886 6.51367 10.8125 6.73753 10.8125 7.01367V11.0674C10.8125 11.3435 10.5886 11.5674 10.3125 11.5674C10.0364 11.5674 9.8125 11.3435 9.8125 11.0674Z" fill="#8D8D8D"/>
<path d="M10.3125 13.0957C10.733 13.0958 11.0795 13.4156 11.1211 13.8252L11.125 13.9082C11.125 14.3568 10.7611 14.7206 10.3125 14.7207C9.86384 14.7207 9.5 14.3569 9.5 13.9082C9.50007 13.4876 9.81982 13.1411 10.2295 13.0996L10.3125 13.0957Z" fill="#8D8D8D"/>
</g>
</svg>
