<svg width="25" height="24" viewBox="0 0 25 24" fill="none" xmlns="http://www.w3.org/2000/svg">
<g id="ion:ticket-outline" clip-path="url(#clip0_493_8039)">
<path id="Vector" d="M17.9919 6.84369C17.602 6.4536 17.3736 5.93069 17.3526 5.37951C17.3316 4.82834 17.5194 4.28955 17.8785 3.87088C17.9082 3.83606 17.9236 3.7913 17.9217 3.74557C17.9198 3.69985 17.9007 3.65653 17.8682 3.62431L15.7996 1.55338C15.7654 1.5192 15.719 1.5 15.6707 1.5C15.6223 1.5 15.5759 1.5192 15.5418 1.55338L12.2446 4.85056C12.1229 4.97217 12.0312 5.12047 11.9769 5.28369C11.9227 5.44727 11.8312 5.59599 11.7096 5.71804C11.5879 5.84009 11.4395 5.93211 11.2761 5.98681C11.1128 6.04123 10.9644 6.13286 10.8425 6.25447L2.38675 14.7084C2.35257 14.7426 2.33337 14.7889 2.33337 14.8373C2.33337 14.8856 2.35257 14.932 2.38675 14.9662L4.45534 17.0348C4.48756 17.0673 4.53088 17.0864 4.5766 17.0883C4.62233 17.0902 4.66709 17.0748 4.70191 17.0451C5.12049 16.6856 5.6594 16.4975 6.21076 16.5184C6.76213 16.5393 7.28525 16.7677 7.6754 17.1579C8.06555 17.548 8.29394 18.0711 8.31485 18.6225C8.33576 19.1739 8.14764 19.7128 7.78816 20.1313C7.75846 20.1662 7.74302 20.2109 7.74493 20.2567C7.74684 20.3024 7.76597 20.3457 7.79847 20.3779L9.86706 22.4465C9.90126 22.4807 9.94762 22.4999 9.99597 22.4999C10.0443 22.4999 10.0907 22.4807 10.1249 22.4465L18.5811 13.9907C18.7027 13.8689 18.7944 13.7204 18.8488 13.5571C18.9029 13.3935 18.9945 13.2448 19.1161 13.1228C19.2378 13.0007 19.3862 12.9087 19.5496 12.854C19.7128 12.7997 19.8611 12.708 19.9827 12.5863L23.2799 9.28916C23.3141 9.25496 23.3333 9.2086 23.3333 9.16025C23.3333 9.11191 23.3141 9.06554 23.2799 9.03135L21.2113 6.96275C21.1791 6.93025 21.1358 6.91112 21.09 6.90921C21.0443 6.9073 20.9995 6.92274 20.9647 6.95244C20.5466 7.31215 20.0082 7.50078 19.457 7.48061C18.9058 7.46045 18.3826 7.23298 17.9919 6.84369Z" stroke="#1D1D1F" stroke-width="1.5" stroke-miterlimit="10"/>
<path id="Vector_2" d="M12.5755 6.58323L11.8016 5.80933M14.639 8.64667L14.1229 8.13105M16.7024 10.7106L16.1868 10.1945M19.0241 13.0318L18.2502 12.2579" stroke="#1D1D1F" stroke-width="1.5" stroke-miterlimit="10" stroke-linecap="round"/>
</g>
<defs>
<clipPath id="clip0_493_8039">
<rect width="24" height="24" fill="white" transform="translate(0.833374)"/>
</clipPath>
</defs>
</svg>
