<svg width="25" height="24" viewBox="0 0 25 24" fill="none" xmlns="http://www.w3.org/2000/svg">
<g id="file-add">
<g id="Group">
<path id="Vector" d="M10.4105 21.0355C9.47285 21.9732 8.20108 22.5 6.875 22.5C5.54892 22.5 4.27715 21.9732 3.33947 21.0355C2.40178 20.0979 1.875 18.8261 1.875 17.5C1.875 16.1739 2.40178 14.9021 3.33947 13.9645C4.27715 13.0268 5.54892 12.5 6.875 12.5C8.20108 12.5 9.47285 13.0268 10.4105 13.9645C11.3482 14.9021 11.875 16.1739 11.875 17.5C11.875 18.8261 11.3482 20.0979 10.4105 21.0355ZM7.58211 13.7999C7.39457 13.6124 7.14022 13.507 6.875 13.507C6.60978 13.507 6.35543 13.6124 6.16789 13.7999C5.98036 13.9874 5.875 14.2418 5.875 14.507V16.5H3.882C3.61678 16.5 3.36243 16.6054 3.17489 16.7929C2.98736 16.9804 2.882 17.2348 2.882 17.5C2.882 17.7652 2.98736 18.0196 3.17489 18.2071C3.36243 18.3946 3.61678 18.5 3.882 18.5H5.875V20.493C5.875 20.7582 5.98036 21.0126 6.16789 21.2001C6.35543 21.3876 6.60978 21.493 6.875 21.493C7.14022 21.493 7.39457 21.3876 7.58211 21.2001C7.76964 21.0126 7.875 20.7582 7.875 20.493V18.5H9.868C10.1332 18.5 10.3876 18.3946 10.5751 18.2071C10.7626 18.0196 10.868 17.7652 10.868 17.5C10.868 17.2348 10.7626 16.9804 10.5751 16.7929C10.3876 16.6054 10.1332 16.5 9.868 16.5H7.875V14.507C7.875 14.2418 7.76964 13.9874 7.58211 13.7999Z" fill="#1D1D1F" stroke="#1D1D1F"/>
<path id="Vector_2" d="M4.66406 10.25V6.25C4.66406 5.32174 5.03281 4.4315 5.68919 3.77513C6.34557 3.11875 7.2358 2.75 8.16406 2.75H10.6121C11.1112 2.74996 11.6046 2.85668 12.0591 3.063M12.0591 3.063C12.4413 3.2368 12.7902 3.47798 13.0871 3.775L19.0551 9.745C19.3551 10.045 19.5951 10.391 19.7661 10.77M12.0591 3.063L12.0601 8.77C12.0601 9.30043 12.2708 9.80914 12.6458 10.1842C13.0209 10.5593 13.5296 10.77 14.0601 10.77H19.7661M14.1221 21.25H16.5801C17.5083 21.25 18.3986 20.8813 19.0549 20.2249C19.7113 19.5685 20.0801 18.6783 20.0801 17.75V12.22C20.0801 11.715 19.9711 11.221 19.7661 10.77" stroke="#1D1D1F" stroke-width="1.5" stroke-linecap="round" stroke-linejoin="round"/>
</g>
</g>
</svg>
