<svg width="24" height="24" viewBox="0 0 24 24" fill="none" xmlns="http://www.w3.org/2000/svg">
<path d="M7.972 9.88601H16.032M7.972 14.114H13.72M12.002 21.25C14.0114 21.2496 15.966 20.5948 17.5702 19.3848C19.1744 18.1748 20.341 16.4753 20.8935 14.5434C21.446 12.6115 21.3544 10.5521 20.6325 8.6769C19.9106 6.80167 18.5977 5.21249 16.8924 4.14971C15.1871 3.08694 13.182 2.60837 11.1806 2.78638C9.17907 2.96439 7.28998 3.7893 5.79898 5.13636C4.30798 6.48341 3.29617 8.27934 2.91657 10.2525C2.53697 12.2258 2.81022 14.2689 3.695 16.073C3.803 16.293 3.839 16.541 3.784 16.779L2.968 20.315C2.945 20.4142 2.94763 20.5177 2.97567 20.6156C3.0037 20.7136 3.05621 20.8027 3.12824 20.8748C3.20027 20.9468 3.28945 20.9993 3.38738 21.0273C3.48531 21.0554 3.58877 21.058 3.688 21.035L7.223 20.218C7.46167 20.1657 7.71107 20.1975 7.929 20.308C9.19639 20.9304 10.59 21.2527 12.002 21.25Z" stroke="#DDDDDD" stroke-width="1.5" stroke-linecap="round" stroke-linejoin="round"/>
</svg>
