<svg width="25" height="24" viewBox="0 0 25 24" fill="none" xmlns="http://www.w3.org/2000/svg">
<path d="M16.053 15.553C16.7086 14.8973 17.2287 14.119 17.5835 13.2624C17.9383 12.4058 18.1209 11.4877 18.1209 10.5605C18.1209 9.63327 17.9383 8.71515 17.5835 7.85854C17.2287 7.00192 16.7086 6.22359 16.053 5.56796C15.3973 4.91234 14.619 4.39227 13.7624 4.03745C12.9058 3.68262 11.9877 3.5 11.0605 3.5C10.1333 3.5 9.21515 3.68262 8.35854 4.03745C7.50192 4.39227 6.72359 4.91234 6.06796 5.56796C4.74387 6.89205 4 8.68791 4 10.5605C4 12.433 4.74387 14.2289 6.06796 15.553C7.39205 16.8771 9.18791 17.6209 11.0605 17.6209C12.933 17.6209 14.7289 16.8771 16.053 15.553ZM16.053 15.553L20.5 20" stroke="#8CE2D0" stroke-width="1.5" stroke-linecap="round" stroke-linejoin="round"/>
</svg>
