<svg width="8" height="16" viewBox="0 0 8 16" fill="none" xmlns="http://www.w3.org/2000/svg">
<path d="M6.83329 8L0.312459 1.47917C0.215237 1.38194 0.166626 1.26389 0.166626 1.125C0.166626 0.986111 0.215237 0.868056 0.312459 0.770833C0.409682 0.673611 0.527737 0.625 0.666626 0.625C0.805515 0.625 0.92357 0.673611 1.02079 0.770833L7.37496 7.125C7.49996 7.25 7.59024 7.38889 7.64579 7.54167C7.70135 7.69445 7.72913 7.84722 7.72913 8C7.72913 8.15278 7.70135 8.30556 7.64579 8.45833C7.59024 8.61111 7.49996 8.75 7.37496 8.875L1.02079 15.2292C0.92357 15.3264 0.805515 15.375 0.666626 15.375C0.527737 15.375 0.409682 15.3264 0.312459 15.2292C0.215237 15.1319 0.166626 15.0139 0.166626 14.875C0.166626 14.7361 0.215237 14.6181 0.312459 14.5208L6.83329 8Z" fill="#8D8D8D"/>
</svg>
