<svg width="20" height="20" viewBox="0 0 20 20" fill="none" xmlns="http://www.w3.org/2000/svg">
<path d="M10.7487 9.7513L7.4987 6.5013C7.34592 6.34852 7.26953 6.15408 7.26953 5.91797C7.26953 5.68186 7.34592 5.48741 7.4987 5.33464C7.65148 5.18186 7.84592 5.10547 8.08203 5.10547C8.31814 5.10547 8.51259 5.18186 8.66536 5.33464L12.4987 9.16797C12.582 9.2513 12.6411 9.34158 12.6758 9.4388C12.7105 9.53602 12.7279 9.64019 12.7279 9.7513C12.7279 9.86241 12.7105 9.96658 12.6758 10.0638C12.6411 10.161 12.582 10.2513 12.4987 10.3346L8.66536 14.168C8.51259 14.3207 8.31814 14.3971 8.08203 14.3971C7.84592 14.3971 7.65148 14.3207 7.4987 14.168C7.34592 14.0152 7.26953 13.8207 7.26953 13.5846C7.26953 13.3485 7.34592 13.1541 7.4987 13.0013L10.7487 9.7513Z" fill="#8D8D8D"/>
</svg>
