<svg width="20" height="20" viewBox="0 0 20 20" fill="none" xmlns="http://www.w3.org/2000/svg">
<path d="M10 20C8.61667 20 7.31667 19.7375 6.1 19.2125C4.88333 18.6875 3.825 17.975 2.925 17.075C2.025 16.175 1.3125 15.1167 0.7875 13.9C0.2625 12.6833 0 11.3833 0 10C0 8.61667 0.2625 7.31667 0.7875 6.1C1.3125 4.88333 2.025 3.825 2.925 2.925C3.825 2.025 4.88333 1.3125 6.1 0.7875C7.31667 0.2625 8.61667 0 10 0C10.8 0 11.5792 0.0916667 12.3375 0.275C13.0958 0.458333 13.825 0.725 14.525 1.075C14.775 1.20833 14.9375 1.40833 15.0125 1.675C15.0875 1.94167 15.0417 2.19167 14.875 2.425C14.7083 2.65833 14.4875 2.80833 14.2125 2.875C13.9375 2.94167 13.6667 2.90833 13.4 2.775C12.8667 2.525 12.3125 2.33333 11.7375 2.2C11.1625 2.06667 10.5833 2 10 2C7.78333 2 5.89583 2.77917 4.3375 4.3375C2.77917 5.89583 2 7.78333 2 10C2 12.2167 2.77917 14.1042 4.3375 15.6625C5.89583 17.2208 7.78333 18 10 18C12.2167 18 14.1042 17.2208 15.6625 15.6625C17.2208 14.1042 18 12.2167 18 10C18 9.86667 17.9958 9.7375 17.9875 9.6125C17.9792 9.4875 17.9667 9.35833 17.95 9.225C17.9167 8.94167 17.9708 8.67083 18.1125 8.4125C18.2542 8.15417 18.4667 7.98333 18.75 7.9C19.0167 7.81667 19.2667 7.84167 19.5 7.975C19.7333 8.10833 19.8667 8.30833 19.9 8.575C19.9333 8.80833 19.9583 9.04167 19.975 9.275C19.9917 9.50833 20 9.75 20 10C20 11.3833 19.7375 12.6833 19.2125 13.9C18.6875 15.1167 17.975 16.175 17.075 17.075C16.175 17.975 15.1167 18.6875 13.9 19.2125C12.6833 19.7375 11.3833 20 10 20ZM8.6 11.8L17.9 2.475C18.0833 2.29167 18.3125 2.19583 18.5875 2.1875C18.8625 2.17917 19.1 2.275 19.3 2.475C19.4833 2.65833 19.575 2.89167 19.575 3.175C19.575 3.45833 19.4833 3.69167 19.3 3.875L9.3 13.9C9.1 14.1 8.86667 14.2 8.6 14.2C8.33333 14.2 8.1 14.1 7.9 13.9L5.05 11.05C4.86667 10.8667 4.775 10.6333 4.775 10.35C4.775 10.0667 4.86667 9.83333 5.05 9.65C5.23333 9.46667 5.46667 9.375 5.75 9.375C6.03333 9.375 6.26667 9.46667 6.45 9.65L8.6 11.8Z" fill="#1D1D1F"/>
</svg>
