<svg width="25" height="24" viewBox="0 0 25 24" fill="none" xmlns="http://www.w3.org/2000/svg">
<g id="proicons:compose">
<g id="Group">
<path id="Vector" d="M10.5376 4.25H8.41663C7.09054 4.25 5.81877 4.77678 4.88109 5.71447C3.94341 6.65215 3.41663 7.92392 3.41663 9.25V15.75C3.41663 17.0761 3.94341 18.3479 4.88109 19.2855C5.81877 20.2232 7.09054 20.75 8.41663 20.75H14.9166C16.2427 20.75 17.5145 20.2232 18.4522 19.2855C19.3898 18.3479 19.9166 17.0761 19.9166 15.75V13.629" stroke="#DDDDDD" stroke-width="1.5" stroke-linecap="round" stroke-linejoin="round"/>
<path id="Vector_2" d="M12.4656 14.7501C12.71 14.7502 12.9521 14.7021 13.1779 14.6086C13.4037 14.515 13.6088 14.3779 13.7816 14.2051L20.3716 7.61509C20.5447 7.44232 20.6821 7.23712 20.7758 7.01122C20.8695 6.78531 20.9177 6.54315 20.9177 6.29859C20.9177 6.05402 20.8695 5.81186 20.7758 5.58596C20.6821 5.36006 20.5447 5.15485 20.3716 4.98209L19.1846 3.79509C19.0119 3.62199 18.8067 3.48466 18.5808 3.39095C18.3549 3.29725 18.1127 3.24902 17.8681 3.24902C17.6236 3.24902 17.3814 3.29725 17.1555 3.39095C16.9296 3.48466 16.7244 3.62199 16.5516 3.79509L9.96163 10.3851C9.78878 10.5579 9.65168 10.763 9.55816 10.9889C9.46465 11.2147 9.41655 11.4567 9.41663 11.7011V14.7501H12.4656Z" stroke="#DDDDDD" stroke-width="1.5" stroke-linecap="round" stroke-linejoin="round"/>
</g>
</g>
</svg>
