<svg width="21" height="20" viewBox="0 0 21 20" fill="none" xmlns="http://www.w3.org/2000/svg">
<mask id="mask0_153_4560" style="mask-type:alpha" maskUnits="userSpaceOnUse" x="0" y="0" width="21" height="20">
<rect x="20.5" width="20" height="20" transform="rotate(90 20.5 0)" fill="#D9D9D9"/>
</mask>
<g mask="url(#mask0_153_4560)">
<path d="M10.5 7.06283L3.97917 13.5837C3.88194 13.6809 3.76389 13.7295 3.625 13.7295C3.48611 13.7295 3.36806 13.6809 3.27083 13.5837C3.17361 13.4864 3.125 13.3684 3.125 13.2295C3.125 13.0906 3.17361 12.9725 3.27083 12.8753L9.625 6.52116C9.75 6.39616 9.88889 6.30588 10.0417 6.25032C10.1944 6.19477 10.3472 6.16699 10.5 6.16699C10.6528 6.16699 10.8056 6.19477 10.9583 6.25032C11.1111 6.30588 11.25 6.39616 11.375 6.52116L17.7292 12.8753C17.8264 12.9725 17.875 13.0906 17.875 13.2295C17.875 13.3684 17.8264 13.4864 17.7292 13.5837C17.6319 13.6809 17.5139 13.7295 17.375 13.7295C17.2361 13.7295 17.1181 13.6809 17.0208 13.5837L10.5 7.06283Z" fill="#99999A"/>
</g>
</svg>
