<svg width="21" height="20" viewBox="0 0 21 20" fill="none" xmlns="http://www.w3.org/2000/svg">
<mask id="mask0_429_20870" style="mask-type:alpha" maskUnits="userSpaceOnUse" x="0" y="0" width="21" height="20">
<rect x="0.5" width="20" height="20" fill="#D9D9D9"/>
</mask>
<g mask="url(#mask0_429_20870)">
<path d="M9.66602 10.8332H5.49935C5.26324 10.8332 5.06532 10.7533 4.9056 10.5936C4.74588 10.4339 4.66602 10.236 4.66602 9.99984C4.66602 9.76373 4.74588 9.56581 4.9056 9.40609C5.06532 9.24637 5.26324 9.1665 5.49935 9.1665H11.3327H15.4993C15.7355 9.1665 15.9334 9.24637 16.0931 9.40609C16.2528 9.56581 16.3327 9.76373 16.3327 9.99984C16.3327 10.236 16.2528 10.4339 16.0931 10.5936C15.9334 10.7533 15.7355 10.8332 15.4993 10.8332H9.66602Z" fill="#8D8D8D"/>
</g>
</svg>
