<svg width="13" height="12" viewBox="0 0 13 12" fill="none" xmlns="http://www.w3.org/2000/svg">
<path d="M5.66602 6.83317H1.49935C1.26324 6.83317 1.06532 6.75331 0.905599 6.59359C0.745877 6.43387 0.666016 6.23595 0.666016 5.99984C0.666016 5.76373 0.745877 5.56581 0.905599 5.40609C1.06532 5.24637 1.26324 5.1665 1.49935 5.1665H5.66602V0.999837C5.66602 0.763726 5.74588 0.565809 5.9056 0.406087C6.06532 0.246365 6.26324 0.166504 6.49935 0.166504C6.73546 0.166504 6.93338 0.246365 7.0931 0.406087C7.25282 0.565809 7.33268 0.763726 7.33268 0.999837V5.1665H11.4993C11.7355 5.1665 11.9334 5.24637 12.0931 5.40609C12.2528 5.56581 12.3327 5.76373 12.3327 5.99984C12.3327 6.23595 12.2528 6.43387 12.0931 6.59359C11.9334 6.75331 11.7355 6.83317 11.4993 6.83317H7.33268V10.9998C7.33268 11.2359 7.25282 11.4339 7.0931 11.5936C6.93338 11.7533 6.73546 11.8332 6.49935 11.8332C6.26324 11.8332 6.06532 11.7533 5.9056 11.5936C5.74588 11.4339 5.66602 11.2359 5.66602 10.9998V6.83317Z" fill="#8D8D8D"/>
</svg>
