<svg width="37" height="36" viewBox="0 0 37 36" fill="none" xmlns="http://www.w3.org/2000/svg">
<g id="proicons:search">
<path id="Vector" d="M23.8294 23.3294C24.8129 22.346 25.593 21.1785 26.1252 19.8936C26.6574 18.6087 26.9314 17.2315 26.9314 15.8407C26.9314 14.4499 26.6574 13.0727 26.1252 11.7878C25.593 10.5029 24.8129 9.33538 23.8294 8.35194C22.846 7.36851 21.6785 6.5884 20.3936 6.05617C19.1087 5.52394 17.7315 5.25 16.3407 5.25C14.9499 5.25 13.5727 5.52394 12.2878 6.05617C11.0029 6.5884 9.83538 7.36851 8.85194 8.35194C6.8658 10.3381 5.75 13.0319 5.75 15.8407C5.75 18.6495 6.8658 21.3433 8.85194 23.3294C10.8381 25.3156 13.5319 26.4314 16.3407 26.4314C19.1495 26.4314 21.8433 25.3156 23.8294 23.3294ZM23.8294 23.3294L30.4999 29.9999" stroke="black" stroke-width="1.5" stroke-linecap="round" stroke-linejoin="round"/>
</g>
</svg>
