<svg width="20" height="20" viewBox="0 0 20 20" fill="none" xmlns="http://www.w3.org/2000/svg">
<mask id="mask0_3450_45254" style="mask-type:alpha" maskUnits="userSpaceOnUse" x="0" y="0" width="20" height="20">
<rect x="20" width="20" height="20" transform="rotate(90 20 0)" fill="#D9D9D9"/>
</mask>
<g mask="url(#mask0_3450_45254)">
<path d="M9.9987 10.4999L13.2487 7.24992C13.4015 7.09714 13.5959 7.02075 13.832 7.02075C14.0681 7.02075 14.2626 7.09714 14.4154 7.24992C14.5681 7.4027 14.6445 7.59714 14.6445 7.83325C14.6445 8.06936 14.5681 8.26381 14.4154 8.41659L10.582 12.2499C10.4987 12.3333 10.4084 12.3923 10.3112 12.427C10.214 12.4617 10.1098 12.4791 9.9987 12.4791C9.88759 12.4791 9.78342 12.4617 9.6862 12.427C9.58898 12.3923 9.4987 12.3333 9.41536 12.2499L5.58203 8.41658C5.42925 8.26381 5.35286 8.06936 5.35286 7.83325C5.35286 7.59714 5.42925 7.4027 5.58203 7.24992C5.73481 7.09714 5.92925 7.02075 6.16536 7.02075C6.40148 7.02075 6.59592 7.09714 6.7487 7.24992L9.9987 10.4999Z" fill="#DDDDDD"/>
</g>
</svg>
