<svg width="25" height="24" viewBox="0 0 25 24" fill="none" xmlns="http://www.w3.org/2000/svg">
<g id="rental">
<path id="Vector" d="M7.72997 4.12339V3.37339V4.12339ZM4 7.83931H3.25H4ZM20.3013 11.7561C20.3013 12.1703 20.6371 12.5061 21.0513 12.5061C21.4655 12.5061 21.8013 12.1703 21.8013 11.7561H20.3013ZM4 7.17539C3.58579 7.17539 3.25 7.51118 3.25 7.92539C3.25 8.33961 3.58579 8.67539 4 8.67539V7.17539ZM21.0513 8.67539C21.4655 8.67539 21.8013 8.33961 21.8013 7.92539C21.8013 7.51118 21.4655 7.17539 21.0513 7.17539V8.67539ZM7.63111 4.12339C7.63111 4.5376 7.9669 4.87339 8.38111 4.87339C8.79533 4.87339 9.13111 4.5376 9.13111 4.12339H7.63111ZM9.13111 2C9.13111 1.58579 8.79533 1.25 8.38111 1.25C7.9669 1.25 7.63111 1.58579 7.63111 2H9.13111ZM15.8903 4.12339C15.8903 4.5376 16.2261 4.87339 16.6403 4.87339C17.0545 4.87339 17.3903 4.5376 17.3903 4.12339H15.8903ZM17.3903 2C17.3903 1.58579 17.0545 1.25 16.6403 1.25C16.2261 1.25 15.8903 1.58579 15.8903 2H17.3903ZM12.7692 20.7988C13.1834 20.7988 13.5192 20.463 13.5192 20.0488C13.5192 19.6346 13.1834 19.2988 12.7692 19.2988V20.7988ZM17.3213 3.37339H7.72997V4.87339H17.3213V3.37339ZM7.72997 3.37339C6.54272 3.37339 5.40353 3.84322 4.56315 4.68043L5.62181 5.74308C6.18045 5.18655 6.93872 4.87339 7.72997 4.87339V3.37339ZM4.56315 4.68043C3.72269 5.51773 3.25 6.65396 3.25 7.83931H4.75C4.75 7.05361 5.06327 6.29952 5.62181 5.74308L4.56315 4.68043ZM3.25 7.83931V16.3329H4.75V7.83931H3.25ZM3.25 16.3329C3.25 17.5182 3.72269 18.6544 4.56315 19.4917L5.62181 18.4291C5.06327 17.8726 4.75 17.1186 4.75 16.3329H3.25ZM4.56315 19.4917C5.40353 20.329 6.54272 20.7988 7.72997 20.7988V19.2988C6.93872 19.2988 6.18045 18.9856 5.62181 18.4291L4.56315 19.4917ZM21.8013 11.7561V7.83931H20.3013V11.7561H21.8013ZM21.8013 7.83931C21.8013 6.65396 21.3286 5.51773 20.4881 4.68043L19.4295 5.74308C19.988 6.29952 20.3013 7.05361 20.3013 7.83931H21.8013ZM20.4881 4.68043C19.6478 3.84322 18.5086 3.37339 17.3213 3.37339V4.87339C18.1126 4.87339 18.8708 5.18655 19.4295 5.74308L20.4881 4.68043ZM4 8.67539H21.0513V7.17539H4V8.67539ZM9.13111 4.12339V2H7.63111V4.12339H9.13111ZM17.3903 4.12339V2H15.8903V4.12339H17.3903ZM7.72997 20.7988H12.7692V19.2988H7.72997V20.7988ZM22.25 16.1463C22.25 18.9659 19.9675 21.25 17.1538 21.25V22.75C20.7977 22.75 23.75 19.7925 23.75 16.1463H22.25ZM17.1538 21.25C14.3402 21.25 12.0577 18.9659 12.0577 16.1463H10.5577C10.5577 19.7925 13.51 22.75 17.1538 22.75V21.25ZM12.0577 16.1463C12.0577 13.3268 14.3402 11.0427 17.1538 11.0427V9.54268C13.51 9.54268 10.5577 12.5001 10.5577 16.1463H12.0577ZM17.1538 11.0427C19.9675 11.0427 22.25 13.3268 22.25 16.1463H23.75C23.75 12.5001 20.7977 9.54268 17.1538 9.54268V11.0427Z" fill="#1D1D1F"/>
<path id="Vector_2" d="M14 14.5L15.6154 19L17 14.5L18.6154 19L20 14.5" stroke="#1D1D1F" stroke-width="1.2" stroke-linecap="round" stroke-linejoin="round"/>
<line id="Line 21" x1="13.6" y1="16.9" x2="20.4" y2="16.9" stroke="#1D1D1F" stroke-width="1.2" stroke-linecap="round"/>
</g>
</svg>
