<svg width="20" height="20" viewBox="0 0 20 20" fill="none" xmlns="http://www.w3.org/2000/svg">
<mask id="mask0_577_19076" style="mask-type:alpha" maskUnits="userSpaceOnUse" x="0" y="0" width="20" height="20">
<rect width="20" height="20" fill="#D9D9D9"/>
</mask>
<g mask="url(#mask0_577_19076)">
<path d="M10.4999 9.99996L7.24992 6.74996C7.09714 6.59718 7.02075 6.40274 7.02075 6.16663C7.02075 5.93051 7.09714 5.73607 7.24992 5.58329C7.4027 5.43051 7.59714 5.35413 7.83325 5.35413C8.06936 5.35413 8.26381 5.43051 8.41659 5.58329L12.2499 9.41663C12.3333 9.49996 12.3923 9.59024 12.427 9.68746C12.4617 9.78468 12.4791 9.88885 12.4791 9.99996C12.4791 10.1111 12.4617 10.2152 12.427 10.3125C12.3923 10.4097 12.3333 10.5 12.2499 10.5833L8.41659 14.4166C8.26381 14.5694 8.06936 14.6458 7.83325 14.6458C7.59714 14.6458 7.4027 14.5694 7.24992 14.4166C7.09714 14.2638 7.02075 14.0694 7.02075 13.8333C7.02075 13.5972 7.09714 13.4027 7.24992 13.25L10.4999 9.99996Z" fill="#1C1B1F"/>
</g>
</svg>
