<svg width="20" height="20" viewBox="0 0 20 20" fill="none" xmlns="http://www.w3.org/2000/svg">
<mask id="mask0_3310_70633" style="mask-type:alpha" maskUnits="userSpaceOnUse" x="0" y="0" width="20" height="20">
<rect width="20" height="20" fill="#D9D9D9"/>
</mask>
<g mask="url(#mask0_3310_70633)">
<path d="M10.4987 9.99996L7.2487 6.74996C7.09592 6.59718 7.01953 6.40274 7.01953 6.16663C7.01953 5.93051 7.09592 5.73607 7.2487 5.58329C7.40148 5.43051 7.59592 5.35413 7.83203 5.35413C8.06814 5.35413 8.26259 5.43051 8.41536 5.58329L12.2487 9.41663C12.332 9.49996 12.3911 9.59024 12.4258 9.68746C12.4605 9.78468 12.4779 9.88885 12.4779 9.99996C12.4779 10.1111 12.4605 10.2152 12.4258 10.3125C12.3911 10.4097 12.332 10.5 12.2487 10.5833L8.41536 14.4166C8.26259 14.5694 8.06814 14.6458 7.83203 14.6458C7.59592 14.6458 7.40148 14.5694 7.2487 14.4166C7.09592 14.2638 7.01953 14.0694 7.01953 13.8333C7.01953 13.5972 7.09592 13.4027 7.2487 13.25L10.4987 9.99996Z" fill="#8D8D8D"/>
</g>
</svg>
