<svg width="13" height="20" viewBox="0 0 13 20" fill="none" xmlns="http://www.w3.org/2000/svg">
<g clip-path="url(#clip0_8714_12923)">
<path d="M10.5233 8.46753C10.5065 6.56947 12.0462 5.65819 12.1142 5.61595C11.249 4.32632 9.89995 4.14658 9.42143 4.12501C8.27282 4.00728 7.17982 4.81432 6.59889 4.81432C6.01797 4.81432 5.11744 4.14479 4.16747 4.16366C2.91379 4.18073 1.76253 4.90508 1.11715 6.04194C-0.182434 8.33721 0.783427 11.7397 2.05211 13.6009C2.67012 14.5122 3.40732 15.5358 4.37583 15.4989C5.31079 15.4621 5.66393 14.8851 6.79224 14.8851C7.92055 14.8851 8.2375 15.4989 9.22543 15.4837C10.2293 15.4621 10.8658 14.5508 11.4785 13.6395C12.1883 12.5818 12.4832 11.5581 12.5 11.5042C12.4779 11.4961 10.5418 10.7394 10.5224 8.46753H10.5233Z" fill="black"/>
<path d="M8.66882 2.89413C9.18441 2.26055 9.53138 1.37803 9.43603 0.5C8.6953 0.528758 7.79742 1.00417 7.26682 1.63506C6.78918 2.19854 6.36982 3.09904 6.48371 3.95819C7.30919 4.022 8.15587 3.52951 8.66882 2.89413Z" fill="black"/>
</g>
<defs>
<clipPath id="clip0_8714_12923">
<rect width="12" height="19.001" fill="white" transform="translate(0.5 0.5)"/>
</clipPath>
</defs>
</svg>
