<svg width="6" height="10" viewBox="0 0 6 10" fill="none" xmlns="http://www.w3.org/2000/svg">
<path d="M3.49967 4.99996L0.249674 1.74996C0.0968967 1.59718 0.0205078 1.40274 0.0205078 1.16663C0.0205078 0.930515 0.0968967 0.73607 0.249674 0.583293C0.402452 0.430515 0.596897 0.354126 0.833008 0.354126C1.06912 0.354126 1.26356 0.430515 1.41634 0.583293L5.24967 4.41663C5.33301 4.49996 5.39204 4.59024 5.42676 4.68746C5.46148 4.78468 5.47884 4.88885 5.47884 4.99996C5.47884 5.11107 5.46148 5.21524 5.42676 5.31246C5.39204 5.40968 5.33301 5.49996 5.24967 5.58329L1.41634 9.41663C1.26356 9.5694 1.06912 9.64579 0.833008 9.64579C0.596897 9.64579 0.402452 9.5694 0.249674 9.41663C0.0968967 9.26385 0.0205078 9.0694 0.0205078 8.83329C0.0205078 8.59718 0.0968967 8.40274 0.249674 8.24996L3.49967 4.99996Z" fill="#1C1B1F"/>
</svg>
