<svg width="21" height="20" viewBox="0 0 21 20" fill="none" xmlns="http://www.w3.org/2000/svg">
<mask id="mask0_429_20865" style="mask-type:alpha" maskUnits="userSpaceOnUse" x="0" y="0" width="21" height="20">
<rect x="0.5" width="20" height="20" fill="#D9D9D9"/>
</mask>
<g mask="url(#mask0_429_20865)">
<path d="M9.66602 10.8332H5.49935C5.26324 10.8332 5.06532 10.7533 4.9056 10.5936C4.74588 10.4339 4.66602 10.2359 4.66602 9.99984C4.66602 9.76373 4.74588 9.56581 4.9056 9.40609C5.06532 9.24637 5.26324 9.1665 5.49935 9.1665H9.66602V4.99984C9.66602 4.76373 9.74588 4.56581 9.9056 4.40609C10.0653 4.24637 10.2632 4.1665 10.4993 4.1665C10.7355 4.1665 10.9334 4.24637 11.0931 4.40609C11.2528 4.56581 11.3327 4.76373 11.3327 4.99984V9.1665H15.4993C15.7355 9.1665 15.9334 9.24637 16.0931 9.40609C16.2528 9.56581 16.3327 9.76373 16.3327 9.99984C16.3327 10.2359 16.2528 10.4339 16.0931 10.5936C15.9334 10.7533 15.7355 10.8332 15.4993 10.8332H11.3327V14.9998C11.3327 15.2359 11.2528 15.4339 11.0931 15.5936C10.9334 15.7533 10.7355 15.8332 10.4993 15.8332C10.2632 15.8332 10.0653 15.7533 9.9056 15.5936C9.74588 15.4339 9.66602 15.2359 9.66602 14.9998V10.8332Z" fill="#8D8D8D"/>
</g>
</svg>
