<svg width="48" height="48" viewBox="0 0 48 48" fill="none" xmlns="http://www.w3.org/2000/svg">
<path d="M20 37.8679H28C28.2652 37.8679 28.5196 37.7626 28.7071 37.575C28.8946 37.3875 29 37.1331 29 36.8679C29 36.6027 28.8946 36.3483 28.7071 36.1608C28.5196 35.9733 28.2652 35.8679 28 35.8679H20C19.7348 35.8679 19.4804 35.9733 19.2929 36.1608C19.1054 36.3483 19 36.6027 19 36.8679C19 37.1331 19.1054 37.3875 19.2929 37.575C19.4804 37.7626 19.7348 37.8679 20 37.8679Z" fill="#8CE2D0"/>
<path d="M14.5396 4.12988H33.4596C34.7143 4.20525 35.8887 4.77267 36.7275 5.70886C37.5663 6.64505 38.0019 7.87441 37.9396 9.12988V11.9999C37.9396 11.9999 37.9396 12.9999 36.9396 12.9999C35.9396 12.9999 35.9396 11.9999 35.9396 11.9999V9.12988C36.0011 8.40473 35.7759 7.68436 35.3122 7.12344C34.8485 6.56253 34.1834 6.20581 33.4596 6.12988H30.3996V7.14988C30.3996 7.68032 30.1889 8.18902 29.8138 8.5641C29.4387 8.93917 28.93 9.14988 28.3996 9.14988H19.5996C19.0692 9.14988 18.5604 8.93917 18.1854 8.5641C17.8103 8.18902 17.5996 7.68032 17.5996 7.14988V6.12988H14.5396C13.8158 6.20581 13.1506 6.56253 12.687 7.12344C12.2233 7.68436 11.998 8.40473 12.0596 9.12988V38.8699C11.998 39.595 12.2233 40.3154 12.687 40.8763C13.1506 41.4372 13.8158 41.794 14.5396 41.8699H33.4596C34.1834 41.794 34.8485 41.4372 35.3122 40.8763C35.7759 40.3154 36.0011 39.595 35.9396 38.8699V35.9999C35.9396 35.9999 35.9396 34.9999 36.9396 34.9999C37.9396 34.9999 37.9396 35.9999 37.9396 35.9999V38.8699C38.0019 40.1254 37.5663 41.3547 36.7275 42.2909C35.8887 43.2271 34.7143 43.7945 33.4596 43.8699H14.5396C13.2848 43.7945 12.1105 43.2271 11.2717 42.2909C10.4328 41.3547 9.99726 40.1254 10.0596 38.8699V9.12988C9.99726 7.87441 10.4328 6.64505 11.2717 5.70886C12.1105 4.77267 13.2848 4.20525 14.5396 4.12988Z" fill="#8CE2D0"/>
<path fill-rule="evenodd" clip-rule="evenodd" d="M44.207 17.2928C44.5976 17.6833 44.5977 18.3165 44.2072 18.707L32.9852 29.931C32.5949 30.3214 31.9621 30.3217 31.5715 29.9317L25.2935 23.6637C24.9026 23.2735 24.9021 22.6403 25.2923 22.2495C25.6825 21.8586 26.3157 21.8581 26.7065 22.2483L32.2774 27.8103L42.7928 17.293C43.1833 16.9024 43.8165 16.9023 44.207 17.2928Z" fill="#8CE2D0"/>
</svg>
