<svg width="102" height="17" viewBox="0 0 102 17" fill="none" xmlns="http://www.w3.org/2000/svg">
<path d="M1.58984 10.5H0.855469L2.92578 4.84375H3.66797L5.73828 10.5H4.99609L4.43359 8.90625H2.16016L1.58984 10.5ZM2.37109 8.28906H4.21484L3.31641 5.75781H3.26953L2.37109 8.28906ZM6.50391 10.5V4.84375H7.17578V6.92969H7.23047C7.37891 6.70312 7.62891 6.20312 8.45703 6.20312C9.51953 6.20312 10.2695 7.04688 10.2695 8.39062C10.2695 9.73438 9.51953 10.5859 8.46484 10.5859C7.65234 10.5859 7.37891 10.0859 7.23047 9.85156H7.15234V10.5H6.50391ZM7.16016 8.375C7.16016 9.32812 7.58984 9.98438 8.36328 9.98438C9.16797 9.98438 9.58984 9.28125 9.58984 8.375C9.58984 7.49219 9.18359 6.80469 8.36328 6.80469C7.58203 6.80469 7.16016 7.4375 7.16016 8.375ZM12.8789 10.5859C11.7227 10.5859 10.9414 9.71875 10.9414 8.39844C10.9414 7.07812 11.7227 6.20312 12.8789 6.20312C14.0273 6.20312 14.8008 7.07812 14.8008 8.39844C14.8008 9.71875 14.0273 10.5859 12.8789 10.5859ZM12.8789 9.99219C13.7305 9.99219 14.1289 9.24219 14.1289 8.39844C14.1289 7.55469 13.7305 6.79688 12.8789 6.79688C12.0117 6.79688 11.6133 7.55469 11.6133 8.39844C11.6133 9.24219 12.0117 9.99219 12.8789 9.99219ZM18.3633 8.75781V6.25781H19.0273V10.5H18.3633V9.78125H18.3164C18.1133 10.2109 17.6992 10.5547 17.0586 10.5547C16.2539 10.5547 15.6836 10.0312 15.6836 8.95312V6.25781H16.3555V8.90625C16.3555 9.51562 16.7383 9.90625 17.2773 9.90625C17.7539 9.90625 18.3633 9.54688 18.3633 8.75781ZM21.957 6.25781V6.82031H21.0664V9.28125C21.0664 9.82812 21.332 9.91406 21.6211 9.91406C21.7461 9.91406 21.918 9.90625 22.0195 9.89844V10.5234C21.918 10.5391 21.7461 10.5547 21.5508 10.5547C20.9883 10.5547 20.3867 10.2031 20.3867 9.45312V6.82031H19.7461V6.25781H20.3867V5.24219H21.0664V6.25781H21.957Z" fill="#8D8D8D"/>
<path d="M30.5731 16.2464H28.5V4.26758H31.9555L36.6733 14.891H36.742V4.26758H38.8325V16.2464H35.2909L30.6603 5.91085H30.5731V16.2464Z" fill="#8D8D8D"/>
<path d="M44.6269 10.4351H48.031L46.4239 5.40368H46.234L44.6269 10.4351ZM48.0485 4.26758L51.9884 16.1951V16.2454H49.8804L48.5668 12.1287H44.0912L42.7775 16.2454H40.6696V16.1951L44.6094 4.26758H48.0485Z" fill="#8D8D8D"/>
<path d="M61.2844 16.1106H58.3123L55.9447 6.40292H55.8584V16.2293H53.8541V4.26758H57.3968L59.7809 14.6706H59.8158L62.1998 4.26758H65.7425V16.2293H63.7382V6.40292H63.651L61.2844 16.1106Z" fill="#8D8D8D"/>
<path d="M73.1676 14.8064C73.9968 14.8064 74.6362 14.572 75.0857 14.103C75.5352 13.6341 75.76 12.976 75.76 12.1297V4.26758H77.8331V12.4678C77.8331 13.0776 77.7233 13.6311 77.5047 14.1282C77.285 14.6253 76.972 15.049 76.5625 15.3991C76.153 15.7493 75.6635 16.021 75.0939 16.2122C74.5244 16.4044 73.8819 16.5 73.1676 16.5C72.4533 16.5 71.8252 16.4044 71.2495 16.2122C70.6727 16.02 70.1801 15.7493 69.7717 15.3991C69.3632 15.049 69.0492 14.6263 68.8296 14.1282C68.611 13.6311 68.5011 13.0776 68.5011 12.4678V4.26758H70.5742V12.1287C70.5742 12.976 70.799 13.6341 71.2485 14.102C71.698 14.571 72.3374 14.8054 73.1666 14.8054" fill="#8D8D8D"/>
<path d="M88.4612 10.6887H82.6381V16.2464H80.565V4.26758H82.6381V8.99513H88.4612V4.26758H90.5517V16.2464H88.4612V10.6887Z" fill="#8D8D8D"/>
<path d="M99.3406 4.18704L101.412 0.54327V0.5H99.5612L97.6226 4.02805H97.5641L95.6398 0.5H93.7894V0.54327L95.8605 4.18704L93.7012 7.95962V8.00289H95.5669L97.5641 4.41748H97.6226L99.6351 8.00289H101.5V7.95962L99.3406 4.18704Z" fill="#8D8D8D"/>
</svg>
