<svg width="28" height="28" viewBox="0 0 28 28" fill="none" xmlns="http://www.w3.org/2000/svg">
<g clip-path="url(#clip0_9742_26128)">
<path d="M25.4991 8.57274C25.2225 7.53953 24.4105 6.72758 23.3773 6.45101C21.5045 5.94922 13.9994 5.94922 13.9994 5.94922C13.9994 5.94922 6.49436 5.94922 4.62352 6.45101C3.59031 6.72758 2.77836 7.53953 2.50179 8.57274C2 10.4436 2 14.3492 2 14.3492C2 14.3492 2 18.2549 2.50179 20.1257C2.77836 21.1589 3.59031 21.9709 4.62352 22.2474C6.49436 22.7492 13.9994 22.7492 13.9994 22.7492C13.9994 22.7492 21.5045 22.7492 23.3754 22.2474C24.4086 21.9709 25.2205 21.1589 25.4971 20.1257C25.9989 18.2549 25.9989 14.3492 25.9989 14.3492C25.9989 14.3492 25.9989 10.4436 25.4971 8.57274H25.4991ZM11.5992 17.9487V10.7498L17.834 14.3492L11.5992 17.9487Z" fill="#8D8D8D"/>
</g>
<defs>
<clipPath id="clip0_9742_26128">
<rect width="23.9989" height="16.8" fill="white" transform="translate(2 5.94922)"/>
</clipPath>
</defs>
</svg>
