<svg width="88" height="33" viewBox="0 0 88 33" fill="none" xmlns="http://www.w3.org/2000/svg">
<path d="M20 0H68V13C68 24.0457 59.0457 33 48 33H40C28.9543 33 20 24.0457 20 13V0Z" fill="white"/>
<path d="M20 0V14C20 6.26801 11.0457 9.47689e-07 0 1.43051e-06L20 0Z" fill="white"/>
<path d="M68 0V14C68 6.26801 76.9543 9.47689e-07 88 1.43051e-06L68 0Z" fill="white"/>
<path d="M37 13.6092V14.6923H42.1667V13.6092H37ZM37 17.2629V18.3462H50.1667V17.2629H37ZM37 20.9169V22H50.1667V20.9169H37Z" fill="#1D1D1D"/>
<path d="M37 14.6923V13.6092H42.1667V14.6923H37Z" fill="#1D1D1D"/>
<path d="M44.1844 15.9535L43.4104 15.1796L46.4969 12.0931L49.5833 15.1796L48.8094 15.9535L46.4969 13.641L44.1844 15.9535Z" fill="#1D1D1D"/>
</svg>
