<svg width="20" height="20" viewBox="0 0 20 20" fill="none" xmlns="http://www.w3.org/2000/svg">
<g clip-path="url(#clip0_96_6309)">
<g filter="url(#filter0_d_96_6309)">
<path d="M10.0003 17.5913C7.95904 15.8559 6.42813 14.2407 5.40758 12.7457C4.38716 11.2507 3.87695 9.86966 3.87695 8.60258C3.87695 6.90175 4.44688 5.44557 5.58674 4.23404C6.72674 3.02251 8.19445 2.41675 9.98987 2.41675C11.7853 2.41675 13.2565 3.02251 14.4034 4.23404C15.5502 5.44557 16.1236 6.90175 16.1236 8.60258C16.1236 9.86966 15.617 11.2477 14.6036 12.7365C13.5903 14.2253 12.0558 15.8436 10.0003 17.5913Z" fill="#9CCF9B"/>
<path d="M9.99023 2.91675C11.6598 2.91683 12.9953 3.47441 14.04 4.57788C15.097 5.69448 15.624 7.02667 15.624 8.60229C15.624 9.73485 15.17 11.0155 14.1904 12.4548C13.2644 13.8153 11.8715 15.3054 10 16.9285C8.14255 15.3173 6.75304 13.83 5.82031 12.4636C4.83343 11.0177 4.37695 9.73413 4.37695 8.60229C4.37702 7.02575 4.90078 5.69333 5.95117 4.5769C6.98864 3.47436 8.32052 2.91675 9.99023 2.91675Z" stroke="white"/>
</g>
<circle cx="9.99967" cy="8.33341" r="1.66667" fill="white"/>
</g>
<defs>
<filter id="filter0_d_96_6309" x="1.87695" y="2.41675" width="16.2471" height="19.1746" filterUnits="userSpaceOnUse" color-interpolation-filters="sRGB">
<feFlood flood-opacity="0" result="BackgroundImageFix"/>
<feColorMatrix in="SourceAlpha" type="matrix" values="0 0 0 0 0 0 0 0 0 0 0 0 0 0 0 0 0 0 127 0" result="hardAlpha"/>
<feOffset dy="2"/>
<feGaussianBlur stdDeviation="1"/>
<feComposite in2="hardAlpha" operator="out"/>
<feColorMatrix type="matrix" values="0 0 0 0 0 0 0 0 0 0 0 0 0 0 0 0 0 0 0.25 0"/>
<feBlend mode="normal" in2="BackgroundImageFix" result="effect1_dropShadow_96_6309"/>
<feBlend mode="normal" in="SourceGraphic" in2="effect1_dropShadow_96_6309" result="shape"/>
</filter>
<clipPath id="clip0_96_6309">
<rect width="20" height="20" fill="white"/>
</clipPath>
</defs>
</svg>
