<svg width="20" height="20" viewBox="0 0 20 20" fill="none" xmlns="http://www.w3.org/2000/svg">
<path d="M6.05775 15.75C5.55258 15.75 5.125 15.575 4.775 15.225C4.425 14.875 4.25 14.4474 4.25 13.9423V2.55775C4.25 2.05258 4.425 1.625 4.775 1.275C5.125 0.925 5.55258 0.75 6.05775 0.75H17.4423C17.9474 0.75 18.375 0.925 18.725 1.275C19.075 1.625 19.25 2.05258 19.25 2.55775V13.9423C19.25 14.4474 19.075 14.875 18.725 15.225C18.375 15.575 17.9474 15.75 17.4423 15.75H6.05775ZM6.05775 14.25H17.4423C17.5193 14.25 17.5898 14.2179 17.6538 14.1538C17.7179 14.0898 17.75 14.0192 17.75 13.9423V2.55775C17.75 2.48075 17.7179 2.41025 17.6538 2.34625C17.5898 2.28208 17.5193 2.25 17.4423 2.25H6.05775C5.98075 2.25 5.91025 2.28208 5.84625 2.34625C5.78208 2.41025 5.75 2.48075 5.75 2.55775V13.9423C5.75 14.0192 5.78208 14.0898 5.84625 14.1538C5.91025 14.2179 5.98075 14.25 6.05775 14.25ZM2.55775 19.25C2.05258 19.25 1.625 19.075 1.275 18.725C0.925 18.375 0.75 17.9474 0.75 17.4423V4.55775H2.25V17.4423C2.25 17.5193 2.28208 17.5898 2.34625 17.6538C2.41025 17.7179 2.48075 17.75 2.55775 17.75H15.4423V19.25H2.55775ZM11.75 8.25C11.4923 8.25 11.2773 8.16375 11.1048 7.99125C10.9324 7.81892 10.8462 7.60392 10.8462 7.34625C10.8462 7.08858 10.9324 6.8735 11.1048 6.701C11.2773 6.5285 11.4923 6.44225 11.75 6.44225C12.0077 6.44225 12.2227 6.5285 12.3953 6.701C12.5676 6.8735 12.6538 7.08858 12.6538 7.34625C12.6538 7.60392 12.5676 7.81892 12.3953 7.99125C12.2227 8.16375 12.0077 8.25 11.75 8.25ZM11.75 12.7692C12.9653 11.7346 13.8718 10.7747 14.4693 9.8895C15.0666 9.00417 15.3652 8.1865 15.3652 7.4365C15.3652 6.302 15.0012 5.40075 14.273 4.73275C13.5448 4.06475 12.7038 3.73075 11.75 3.73075C10.7962 3.73075 9.95517 4.06475 9.227 4.73275C8.49883 5.40075 8.13475 6.302 8.13475 7.4365C8.13475 8.1865 8.43342 9.00417 9.03075 9.8895C9.62825 10.7747 10.5347 11.7346 11.75 12.7692Z" fill="#1D1D1D"/>
</svg>
