<svg width="32" height="32" viewBox="0 0 32 32" fill="none" xmlns="http://www.w3.org/2000/svg">
<path d="M8.30775 21.5C7.80258 21.5 7.375 21.325 7.025 20.975C6.675 20.625 6.5 20.1974 6.5 19.6923V12.3077C6.5 11.8026 6.675 11.375 7.025 11.025C7.375 10.675 7.80258 10.5 8.30775 10.5H23.6923C24.1974 10.5 24.625 10.675 24.975 11.025C25.325 11.375 25.5 11.8026 25.5 12.3077V19.6923C25.5 20.1974 25.325 20.625 24.975 20.975C24.625 21.325 24.1974 21.5 23.6923 21.5H8.30775ZM8.30775 20H23.6923C23.7693 20 23.8398 19.9679 23.9038 19.9037C23.9679 19.8397 24 19.7693 24 19.6923V12.3077C24 12.2307 23.9679 12.1602 23.9038 12.0962C23.8398 12.0321 23.7693 12 23.6923 12H20.75V15.6152H19.25V12H16.75V15.6152H15.25V12H12.75V15.6152H11.25V12H8.30775C8.23075 12 8.16025 12.0321 8.09625 12.0962C8.03208 12.1602 8 12.2307 8 12.3077V19.6923C8 19.7693 8.03208 19.8397 8.09625 19.9037C8.16025 19.9679 8.23075 20 8.30775 20Z" fill="#1D1D1D"/>
</svg>
